<?xml version="1.0" encoding="UTF-8"?>
<svg width="231px" height="149px" viewBox="0 0 231 149" version="1.1" xmlns="http://www.w3.org/2000/svg" xmlns:xlink="http://www.w3.org/1999/xlink">
    <!-- Generator: Sketch 51.2 (57519) - http://www.bohemiancoding.com/sketch -->
    <title>Group 23@0,5x</title>
    <desc>Created with Sketch.</desc>
    <defs></defs>
    <g id="WFCE" stroke="none" stroke-width="1" fill="none" fill-rule="evenodd">
        <g id="Homepage-new" transform="translate(-145.000000, -2568.000000)">
            <g id="Group-23" transform="translate(145.000000, 2568.000000)">
                <g id="Group-44">
                    <g id="Group-25" fill="#353952">
                        <path d="M20,0 L211,0 C222.045695,-2.02906125e-15 231,8.954305 231,20 L231,149 L0,149 L0,20 C-1.3527075e-15,8.954305 8.954305,2.02906125e-15 20,0 Z" id="Rectangle-11"></path>
                        <path d="M20,0 L211,0 C222.045695,-2.02906125e-15 231,8.954305 231,20 L231,149 L0,149 L0,20 C-1.3527075e-15,8.954305 8.954305,2.02906125e-15 20,0 Z" id="Rectangle-11"></path>
                    </g>
                    <g id="Group-22" opacity="0.5" transform="translate(16.000000, 16.000000)">
                        <circle id="Oval-5" fill="#69E881" cx="2" cy="2" r="2"></circle>
                        <circle id="Oval-5" fill="#D8D8D8" cx="9" cy="2" r="2"></circle>
                        <circle id="Oval-5" fill="#D8D8D8" cx="16" cy="2" r="2"></circle>
                    </g>
                </g>
            </g>
        </g>
    </g>
</svg>